<svg width="78" height="77" viewBox="0 0 78 77" fill="none" xmlns="http://www.w3.org/2000/svg">
<path d="M66.8055 30.004C67.6817 32.7514 68.1341 35.6163 68.1471 38.5C68.1471 54.4539 55.2139 67.387 39.2601 67.387C23.3062 67.387 10.373 54.4539 10.373 38.5C10.373 22.5461 23.3062 9.61298 39.2601 9.61298C42.1438 9.62601 45.0087 10.0784 47.7561 10.9546" stroke="#A1B0D5" stroke-width="2.5" stroke-linecap="round" stroke-linejoin="round"/>
<path d="M68.1472 13.702L61.7664 20.0829L57.6741 15.9905" stroke="#A1B0D5" stroke-width="2.5" stroke-linecap="round" stroke-linejoin="round"/>
<path d="M25.2437 34.4109C25.2437 31.798 27.3618 29.6798 29.9747 29.6798C32.5876 29.6798 34.7058 31.798 34.7058 34.4109C34.7058 40.3231 25.2437 40.3231 25.2437 47.3266H34.7058" stroke="#A1B0D5" stroke-width="2.5" stroke-linecap="round" stroke-linejoin="round"/>
<path d="M50.5966 47.3266V31.3168C50.6 30.587 50.1187 29.9437 49.4178 29.7409C48.7168 29.538 47.9664 29.825 47.5795 30.4437C45.5671 33.6983 43.3717 37.3927 41.4747 40.6569C41.1591 41.2031 41.1598 41.8765 41.4767 42.4221C41.7935 42.9676 42.3781 43.302 43.009 43.2984H53.2767" stroke="#A1B0D5" stroke-width="2.5" stroke-linecap="round" stroke-linejoin="round"/>
</svg>
