<svg width="32" height="33" viewBox="0 0 32 33" fill="none" xmlns="http://www.w3.org/2000/svg">
<path d="M5.17163 18.5009H26.8286" stroke="black" stroke-width="2" stroke-linecap="round" stroke-linejoin="round"/>
<path fill-rule="evenodd" clip-rule="evenodd" d="M26.8644 18.0515L27.9661 11.6155C28.0988 10.8403 27.8828 10.046 27.3757 9.44485C26.8686 8.84367 26.1222 8.49683 25.3357 8.49683H6.6643C5.87804 8.49683 5.13175 8.84332 4.62469 9.44422C4.11764 10.0451 3.90145 10.8391 4.03387 11.6141L5.13566 18.0501C5.18633 18.3481 5.18633 18.6525 5.13566 18.9505L4.03387 25.3865C3.9012 26.1617 4.11725 26.956 4.62432 27.5572C5.13138 28.1583 5.87783 28.5052 6.6643 28.5052H25.3371C26.1231 28.5052 26.8691 28.1582 27.3759 27.5573C27.8826 26.9564 28.0986 26.1627 27.9662 25.3879L26.8644 18.9518C26.8137 18.6539 26.8137 18.3495 26.8644 18.0515Z" stroke="black" stroke-width="2" stroke-linecap="round" stroke-linejoin="round"/>
<path d="M6.85247 8.49678L6.70174 7.61242C6.56929 6.83762 6.78528 6.04384 7.29204 5.44297C7.7988 4.8421 8.54476 4.49529 9.33079 4.49512H22.669C23.4552 4.49476 24.2015 4.84142 24.7084 5.44243C25.2153 6.04344 25.4311 6.83752 25.2981 7.61242L25.1474 8.49678" stroke="black" stroke-width="2" stroke-linecap="round" stroke-linejoin="round"/>
</svg>
