<svg width="78" height="77" viewBox="0 0 78 77" fill="none" xmlns="http://www.w3.org/2000/svg">
<path d="M42.5918 28.8711H55.4305" stroke="#A1B0D4" stroke-width="2.2" stroke-linecap="round" stroke-linejoin="round"/>
<path d="M32.9628 67.3871H26.5435C17.6802 67.3871 10.4951 60.202 10.4951 51.3388V25.6614C10.4951 16.7981 17.6802 9.61304 26.5435 9.61304H52.2208C61.0841 9.61304 68.2692 16.7981 68.2692 25.6614V32.0807" stroke="#A1B0D4" stroke-width="2.2" stroke-linecap="round" stroke-linejoin="round"/>
<path d="M23.334 27.9916L26.2837 30.6492L32.2216 25.3019" stroke="#A1B0D4" stroke-width="2.2" stroke-linecap="round" stroke-linejoin="round"/>
<path d="M23.334 44.0399L26.2837 46.6975L32.2216 41.3502" stroke="#A1B0D4" stroke-width="2.2" stroke-linecap="round" stroke-linejoin="round"/>
<path fill-rule="evenodd" clip-rule="evenodd" d="M45.8018 68.9919V67.6888C45.8123 63.9813 48.8153 60.9784 52.5228 60.9678H61.5484C65.2559 60.9784 68.2589 63.9813 68.2694 67.6888V68.9919C68.2694 69.8783 67.5509 70.5968 66.6646 70.5968H47.4066C46.981 70.5968 46.5728 70.4277 46.2718 70.1267C45.9708 69.8258 45.8018 69.4176 45.8018 68.9919Z" stroke="#A1B0D4" stroke-width="2.2" stroke-linecap="round" stroke-linejoin="round"/>
<circle cx="57.0356" cy="47.3267" r="6.41934" stroke="#A1B0D4" stroke-width="2.2" stroke-linecap="round" stroke-linejoin="round"/>
</svg>
