<svg width="24" height="24" viewBox="0 0 24 24" fill="none" xmlns="http://www.w3.org/2000/svg">
<path d="M14.1015 12.4053L14.5004 14.0009" stroke="#323232" stroke-width="1.5" stroke-linecap="round" stroke-linejoin="round"/>
<path d="M13.0003 16.0661C11.5895 16.3461 10.1253 16.0487 8.93557 15.2405C8.73584 15.1076 8.49153 15.0594 8.25628 15.1065L5.4091 15.6757C4.00601 15.9562 2.99609 17.1881 2.99609 18.6189V19.0031" stroke="#323232" stroke-width="1.5" stroke-linecap="round" stroke-linejoin="round"/>
<path d="M16.0014 6.99826H7.99805" stroke="#323232" stroke-width="1.5" stroke-linecap="round" stroke-linejoin="round"/>
<path fill-rule="evenodd" clip-rule="evenodd" d="M9.99888 2.99658H14.0005C15.1056 2.99658 16.0014 3.89239 16.0014 4.99742V8.99908C16.0014 11.2091 14.2098 13.0007 11.9997 13.0007V13.0007C9.78965 13.0007 7.99805 11.2091 7.99805 8.99908V4.99742C7.99805 3.89239 8.89385 2.99658 9.99888 2.99658Z" stroke="#323232" stroke-width="1.5" stroke-linecap="round" stroke-linejoin="round"/>
<path d="M9.90018 12.4053L9.15687 15.3785" stroke="#323232" stroke-width="1.5" stroke-linecap="round" stroke-linejoin="round"/>
<circle cx="18.5024" cy="18.0024" r="3.50146" stroke="#323232" stroke-width="1.5" stroke-linecap="round" stroke-linejoin="round"/>
<path d="M19.6702 17.4189L18.2121 18.8779L17.3359 18.0025" stroke="#323232" stroke-width="1.5" stroke-linecap="round" stroke-linejoin="round"/>
<path d="M7.99826 15.1582V19.0032" stroke="#323232" stroke-width="1.5" stroke-linecap="round" stroke-linejoin="round"/>
<circle cx="7.99867" cy="20.5036" r="1.50063" stroke="#323232" stroke-width="1.5" stroke-linecap="round" stroke-linejoin="round"/>
</svg>
