<svg width="77" height="77" viewBox="0 0 77 77" fill="none" xmlns="http://www.w3.org/2000/svg">
<path d="M25.6667 9.625H19.25C13.9343 9.625 9.625 13.9343 9.625 19.25V25.6667" stroke="#A1B0D4" stroke-width="2.2" stroke-linecap="round" stroke-linejoin="round"/>
<path d="M54.542 67.375H57.7503C63.0661 67.375 67.3753 63.0657 67.3753 57.75V38.5" stroke="#A1B0D4" stroke-width="2.2" stroke-linecap="round" stroke-linejoin="round"/>
<path d="M38.5003 67.3751C38.5003 65.2478 37.6553 63.2077 36.1511 61.7035C34.6469 60.1993 32.6067 59.3542 30.4795 59.3542H14.4378C10.008 59.3542 6.41699 62.9453 6.41699 67.3751" stroke="#A1B0D4" stroke-width="2.2" stroke-linecap="round" stroke-linejoin="round"/>
<ellipse cx="22.4583" cy="43.3126" rx="8.02083" ry="8.02083" stroke="#A1B0D4" stroke-width="2.2" stroke-linecap="round" stroke-linejoin="round"/>
<rect x="38.5" y="6.41675" width="22.4583" height="22.4583" rx="4.62" stroke="#A1B0D4" stroke-width="2.2" stroke-linecap="round" stroke-linejoin="round"/>
<path d="M60.958 21.3803L67.4033 25.3532C68.0467 25.7498 68.8542 25.7672 69.5142 25.3988C70.1741 25.0304 70.583 24.3338 70.583 23.578V11.7136C70.583 10.9578 70.1741 10.2612 69.5142 9.89275C68.8543 9.52431 68.0467 9.54175 67.4033 9.93833L60.958 13.9113" stroke="#A1B0D4" stroke-width="2.2" stroke-linecap="round" stroke-linejoin="round"/>
</svg>
