<svg width="128" height="129" viewBox="0 0 128 129" fill="none" xmlns="http://www.w3.org/2000/svg">
<g filter="url(#filter0_d_37_400)">
<path d="M63.999 102.057C32.7437 102.057 24.999 92.0999 24.999 63.0574C24.999 34.0149 32.4671 24.0574 63.999 24.0574C95.5309 24.0574 102.999 34.0149 102.999 63.0574C102.999 92.0999 95.2543 102.057 63.999 102.057Z" fill="white"/>
<path d="M63.999 101.557C48.3905 101.557 38.8303 99.0628 33.1399 93.103C27.4439 87.1374 25.499 77.5713 25.499 63.0574C25.499 48.5404 27.3757 38.9755 33.0372 33.0106C38.6924 27.0525 48.2507 24.5574 63.999 24.5574C79.7474 24.5574 89.3057 27.0525 94.9608 33.0106C100.622 38.9755 102.499 48.5404 102.499 63.0574C102.499 77.5713 100.554 87.1374 94.8581 93.103C89.1677 99.0628 79.6076 101.557 63.999 101.557Z" stroke="url(#paint0_linear_37_400)" stroke-opacity="0.11"/>
</g>
<defs>
<filter id="filter0_d_37_400" x="-0.000976562" y="0.057373" width="128" height="128" filterUnits="userSpaceOnUse" color-interpolation-filters="sRGB">
<feFlood flood-opacity="0" result="BackgroundImageFix"/>
<feColorMatrix in="SourceAlpha" type="matrix" values="0 0 0 0 0 0 0 0 0 0 0 0 0 0 0 0 0 0 127 0" result="hardAlpha"/>
<feOffset dy="1"/>
<feGaussianBlur stdDeviation="12.5"/>
<feComposite in2="hardAlpha" operator="out"/>
<feColorMatrix type="matrix" values="0 0 0 0 0.645833 0 0 0 0 0.645833 0 0 0 0 0.645833 0 0 0 0.07 0"/>
<feBlend mode="normal" in2="BackgroundImageFix" result="effect1_dropShadow_37_400"/>
<feBlend mode="normal" in="SourceGraphic" in2="effect1_dropShadow_37_400" result="shape"/>
</filter>
<linearGradient id="paint0_linear_37_400" x1="63.999" y1="24.0574" x2="63.999" y2="102.057" gradientUnits="userSpaceOnUse">
<stop offset="0.258006" stop-color="#577289"/>
<stop offset="0.710979" stop-color="#577289" stop-opacity="0"/>
</linearGradient>
</defs>
</svg>
