<svg width="175" height="60" viewBox="0 0 175 60" fill="none" xmlns="http://www.w3.org/2000/svg">
<path d="M0.966797 31.9178H2.80474C3.05562 31.9192 3.29591 32.019 3.47381 32.1956C3.65171 32.3722 3.75297 32.6116 3.75577 32.8621V48.5836C3.75717 48.835 3.85782 49.0757 4.03587 49.2535C4.21392 49.4313 4.455 49.5318 4.7068 49.5332H11.7327C11.9835 49.5346 12.2238 49.6343 12.4017 49.811C12.5796 49.9876 12.6809 50.227 12.6837 50.4774V51.9872C12.6782 52.2363 12.5759 52.4735 12.3984 52.6487C12.2209 52.8239 11.9822 52.9234 11.7327 52.9261H0.966797C0.71543 52.9233 0.475143 52.8224 0.297389 52.6449C0.119635 52.4674 0.018546 52.2275 0.0157682 51.9765V32.9048C0.00918445 32.7766 0.0289921 32.6484 0.0739675 32.5282C0.118943 32.4079 0.188131 32.2982 0.277258 32.2057C0.366385 32.1132 0.473558 32.0399 0.592156 31.9904C0.710755 31.9409 0.838261 31.9162 0.966797 31.9178Z" fill="#2970FF"/>
<path d="M23.941 50.8669H23.8555C23.3855 51.6237 22.714 52.2351 21.9161 52.6327C21.0998 52.9915 20.2166 53.1734 19.3248 53.1662C18.6838 53.1679 18.0456 53.0817 17.4281 52.9101C16.8312 52.75 16.2732 52.4705 15.7878 52.0886C15.3115 51.7291 14.9149 51.275 14.6231 50.7549C14.3213 50.1854 14.1722 49.5477 14.1903 48.9037C14.1661 48.2165 14.3149 47.5342 14.6231 46.9192C14.886 46.3803 15.2699 45.9093 15.7451 45.5428C16.235 45.1794 16.7748 44.8883 17.3479 44.6786C17.9622 44.4572 18.5979 44.2999 19.2446 44.2091C19.8996 44.0915 20.5619 44.0184 21.2268 43.9904C21.9214 43.9477 22.5251 43.9477 23.1289 43.9477H24.0318V43.5903C24.0614 43.2103 23.9941 42.829 23.8362 42.482C23.6784 42.1349 23.435 41.8335 23.1289 41.6058C22.4401 41.1504 21.6247 40.9244 20.7994 40.9603C20.0686 40.9517 19.3429 41.0839 18.6623 41.3497C18.2931 41.5004 17.9359 41.6787 17.5937 41.8832C17.4154 42.0153 17.1956 42.0793 16.9741 42.0636C16.7526 42.048 16.5441 41.9537 16.3862 41.7978L15.7825 41.1897C15.691 41.0927 15.6204 40.9781 15.575 40.8529C15.5295 40.7278 15.5102 40.5946 15.5182 40.4617C15.5262 40.3288 15.5614 40.1989 15.6215 40.0801C15.6817 39.9612 15.7655 39.8559 15.8679 39.7706C16.4679 39.3418 17.1218 38.9939 17.8127 38.7357C18.8691 38.3852 19.9747 38.2052 21.0879 38.2022C21.9499 38.1917 22.8087 38.3085 23.6365 38.549C24.2536 38.7381 24.835 39.0283 25.3569 39.4078C25.8058 39.7284 26.1631 40.1606 26.3934 40.6615C26.6492 41.1016 26.8298 41.5812 26.9277 42.0806C27.0444 42.53 27.1019 42.9927 27.0986 43.4569C27.0986 43.889 27.1467 44.2785 27.1467 44.6199V51.8592C27.1439 52.1097 27.0427 52.349 26.8648 52.5256C26.6869 52.7023 26.4466 52.802 26.1957 52.8034H24.8493C24.5984 52.802 24.3581 52.7023 24.1802 52.5256C24.0023 52.349 23.9011 52.1097 23.8983 51.8592V50.8242L23.941 50.8669ZM23.7273 46.4711H22.99C22.5198 46.4711 21.9588 46.4711 21.3551 46.5191C20.7699 46.5489 20.1904 46.6492 19.6293 46.8178C19.1256 46.9273 18.6528 47.1478 18.2455 47.4633C18.0624 47.6025 17.9157 47.7839 17.818 47.992C17.7203 48.2001 17.6745 48.4287 17.6845 48.6583C17.6859 48.9599 17.7611 49.2566 17.9036 49.5225C18.0408 49.7369 18.2231 49.919 18.4379 50.056C18.6863 50.2204 18.9637 50.3363 19.2553 50.3974C19.5526 50.4681 19.8583 50.4968 20.1636 50.4828C21.1448 50.552 22.1156 50.2448 22.8778 49.6239C23.1775 49.3098 23.4091 48.9373 23.558 48.5297C23.7069 48.1222 23.77 47.6883 23.7433 47.2553V46.4711H23.7273Z" fill="#2970FF"/>
<path d="M31.9232 30.5202H33.6062C33.857 30.5229 34.0968 30.6241 34.2737 30.8017C34.4506 30.9793 34.5505 31.2192 34.5519 31.4697V40.5388H34.6267C34.8339 40.275 35.0646 40.0304 35.3159 39.808C35.6151 39.513 35.953 39.26 36.3203 39.0558C36.7559 38.8176 37.2213 38.6382 37.7041 38.5223C38.2828 38.3799 38.8767 38.3082 39.4726 38.3089C40.4333 38.2855 41.3878 38.4674 42.2723 38.8424C43.1014 39.1997 43.8338 39.7481 44.4094 40.4428C45.0329 41.1515 45.5201 41.9689 45.8467 42.8541C46.2024 43.7896 46.3834 44.7822 46.3809 45.7829C46.3815 46.7779 46.2228 47.7667 45.9108 48.7117C45.6135 49.586 45.1428 50.3915 44.527 51.0803C43.9128 51.7796 43.1447 52.3274 42.283 52.6807C41.3542 53.0644 40.3543 53.2463 39.3497 53.2142C38.3842 53.2148 37.4296 53.0092 36.5501 52.6114C35.6794 52.2096 34.955 51.5479 34.4771 50.7175H34.4343V51.9232C34.4315 52.1737 34.3303 52.413 34.1524 52.5897C33.9745 52.7663 33.7342 52.8661 33.4833 52.8674H31.9552C31.7044 52.8661 31.4641 52.7663 31.2862 52.5897C31.1083 52.413 31.007 52.1737 31.0042 51.9232V31.4004C31.0018 31.2809 31.0241 31.1623 31.07 31.0519C31.1158 30.9415 31.184 30.8418 31.2704 30.7591C31.3567 30.6763 31.4593 30.6124 31.5717 30.5713C31.6841 30.5302 31.8037 30.5128 31.9232 30.5202ZM42.7478 45.7402C42.7569 45.1921 42.6551 44.6477 42.4486 44.1398C42.2544 43.6459 41.976 43.1892 41.6258 42.7901C41.2456 42.3924 40.7921 42.0717 40.2901 41.8458C39.7308 41.6097 39.1287 41.4917 38.5216 41.4991C37.9149 41.496 37.3136 41.6139 36.7531 41.8458C36.2486 42.0673 35.7942 42.3885 35.4174 42.7901C35.0557 43.1908 34.7762 43.6584 34.5946 44.1665C34.4085 44.6802 34.3074 45.2207 34.2954 45.7669C34.2863 46.315 34.3881 46.8594 34.5946 47.3673C34.7836 47.8719 35.0623 48.3381 35.4174 48.7437C35.7987 49.1415 36.2519 49.4637 36.7531 49.6933C37.3131 49.9269 37.9147 50.0449 38.5216 50.04C39.1281 50.0405 39.7288 49.9227 40.2901 49.6933C40.7949 49.4699 41.2493 49.1469 41.6258 48.7437C41.9898 48.3447 42.2696 47.8766 42.4486 47.3673C42.6587 46.8511 42.7605 46.2973 42.7478 45.7402Z" fill="#2970FF"/>
<path d="M58.5361 50.8669H58.4506C57.9806 51.6237 57.3091 52.2351 56.5111 52.6327C55.6949 52.9915 54.8117 53.1734 53.9198 53.1662C53.2788 53.1679 52.6406 53.0817 52.0231 52.9101C51.4263 52.75 50.8682 52.4705 50.3828 52.0886C49.9065 51.7291 49.5099 51.275 49.2181 50.7549C48.9163 50.1854 48.7673 49.5477 48.7853 48.9037C48.7612 48.2165 48.91 47.5342 49.2181 46.9192C49.481 46.3803 49.865 45.9093 50.3401 45.5428C50.8301 45.1794 51.3699 44.8883 51.943 44.6786C52.5573 44.4572 53.1929 44.2999 53.8397 44.2091C54.4947 44.0915 55.1569 44.0184 55.8219 43.9904C56.5164 43.9477 57.1202 43.9477 57.7239 43.9477H58.6269V43.5903C58.6565 43.2103 58.5892 42.829 58.4313 42.482C58.2734 42.1349 58.0301 41.8335 57.7239 41.6058C57.0352 41.1504 56.2197 40.9244 55.3945 40.9603C54.6636 40.9517 53.938 41.0839 53.2573 41.3497C52.8882 41.5004 52.531 41.6787 52.1887 41.8832C52.0104 42.0153 51.7906 42.0793 51.5692 42.0636C51.3477 42.048 51.1391 41.9537 50.9812 41.7978L50.3775 41.1897C50.2868 41.0924 50.2168 40.9777 50.1718 40.8526C50.1268 40.7275 50.1077 40.5945 50.1157 40.4618C50.1237 40.3291 50.1586 40.1995 50.2183 40.0806C50.278 39.9618 50.3612 39.8563 50.463 39.7706C51.0629 39.3418 51.7168 38.9939 52.4078 38.7357C53.4642 38.3852 54.5698 38.2052 55.683 38.2022C56.545 38.1917 57.4038 38.3085 58.2315 38.549C58.8499 38.7392 59.4329 39.0293 59.9573 39.4078C60.4031 39.7304 60.7582 40.1621 60.9884 40.6615C61.2443 41.1016 61.4248 41.5812 61.5227 42.0806C61.6394 42.53 61.6969 42.9927 61.6937 43.4569C61.6937 43.889 61.7418 44.2785 61.7418 44.6199V51.8592C61.739 52.1097 61.6377 52.349 61.4598 52.5256C61.2819 52.7023 61.0416 52.802 60.7907 52.8034H59.455C59.2041 52.802 58.9639 52.7023 58.786 52.5256C58.6081 52.349 58.5068 52.1097 58.504 51.8592V50.8242L58.5361 50.8669ZM58.3223 46.4711H57.6011C57.1309 46.4711 56.5699 46.4711 55.9661 46.5191C55.3809 46.5489 54.8015 46.6492 54.2404 46.8178C53.7367 46.9273 53.2639 47.1478 52.8566 47.4633C52.6666 47.5985 52.5127 47.7781 52.4084 47.9864C52.304 48.1948 52.2525 48.4255 52.2582 48.6583C52.2596 48.9599 52.3348 49.2566 52.4773 49.5225C52.6145 49.7369 52.7968 49.919 53.0115 50.056C53.2599 50.2204 53.5373 50.3363 53.829 50.3974C54.1263 50.4681 54.432 50.4968 54.7373 50.4828C55.7185 50.552 56.6893 50.2448 57.4515 49.6239C57.7512 49.3098 57.9827 48.9373 58.1317 48.5297C58.2806 48.1222 58.3437 47.6883 58.317 47.2553V46.4711H58.3223Z" fill="#2970FF"/>
<path d="M65.0492 38.6343H66.9031C67.0907 38.6307 67.2745 38.6874 67.4274 38.7959C67.5803 38.9044 67.6943 39.0591 67.7527 39.2371L71.4927 48.4983H71.5354L74.8587 39.2798C74.9204 39.0922 75.0435 38.9307 75.2082 38.8213C75.373 38.712 75.5698 38.6612 75.7669 38.677H77.4499C77.6004 38.6743 77.7491 38.7088 77.883 38.7773C78.0169 38.8458 78.1317 38.9463 78.2174 39.0698C78.303 39.1933 78.3568 39.3361 78.3739 39.4853C78.391 39.6345 78.3709 39.7857 78.3155 39.9253L72.1017 55.9296C71.8843 56.5494 71.5956 57.142 71.2415 57.6954C70.9665 58.1867 70.6045 58.6242 70.173 58.9864C69.7369 59.3351 69.2382 59.5976 68.7037 59.7599C68.045 59.9446 67.3628 60.0327 66.6787 60.0214C66.0561 60.0309 65.4344 59.9719 64.8248 59.8453C64.5927 59.8023 64.3865 59.6708 64.2499 59.4786C64.1132 59.2864 64.0569 59.0486 64.0928 58.8157L64.2638 57.5194C64.2813 57.3925 64.325 57.2707 64.3923 57.1616C64.4595 57.0526 64.5487 56.9587 64.6542 56.886C64.7598 56.8132 64.8793 56.7632 65.0052 56.7391C65.1312 56.7149 65.2608 56.7172 65.3858 56.7458C65.6124 56.7952 65.8431 56.8238 66.075 56.8312C66.4954 56.84 66.9154 56.797 67.3252 56.7031C67.608 56.6292 67.872 56.4965 68.0999 56.3137C68.326 56.1431 68.509 55.922 68.6342 55.6682C68.7946 55.3611 68.9391 55.0459 69.067 54.7239L69.6013 53.3849C69.6875 53.1489 69.6875 52.8901 69.6013 52.6541L64.1462 39.968C64.0907 39.8204 64.0714 39.6618 64.0899 39.5052C64.1085 39.3487 64.1643 39.1989 64.2527 39.0683C64.3411 38.9377 64.4595 38.8301 64.5981 38.7546C64.7367 38.6791 64.8913 38.6379 65.0492 38.6343Z" fill="#2970FF"/>
<path d="M84.5024 40.6135H84.5505C84.8772 39.9526 85.3848 39.3977 86.0144 39.0131C86.8244 38.4962 87.7734 38.2393 88.7339 38.2769C89.5637 38.2604 90.3873 38.4223 91.1489 38.7517C91.7751 39.0345 92.3246 39.4624 92.7518 40C93.1606 40.5271 93.4669 41.1261 93.6547 41.7658C93.8281 42.4638 93.9142 43.1806 93.9112 43.8997V51.9019C93.9098 52.1519 93.8097 52.3912 93.6326 52.568C93.4556 52.7448 93.2158 52.8447 92.9655 52.8461H91.2611C91.0102 52.8447 90.7699 52.745 90.592 52.5683C90.4141 52.3917 90.3129 52.1523 90.3101 51.9019V45.6549C90.3101 45.2654 90.3101 44.8386 90.2673 44.3212C90.2338 43.8488 90.133 43.3835 89.9681 42.9395C89.7976 42.5265 89.53 42.1605 89.1881 41.8725C88.7714 41.5507 88.2491 41.3965 87.7241 41.4404C87.2036 41.4193 86.6854 41.5217 86.2121 41.7391C85.8285 41.9407 85.4917 42.2206 85.2237 42.5607C84.9594 42.9028 84.7767 43.3005 84.6894 43.7237C84.5648 44.1716 84.5054 44.6352 84.5131 45.1V51.9072C84.5117 52.1572 84.4116 52.3966 84.2345 52.5733C84.0575 52.7501 83.8178 52.85 83.5674 52.8514H81.8844C81.6335 52.8501 81.3932 52.7503 81.2153 52.5737C81.0374 52.397 80.9361 52.1577 80.9333 51.9072V31.4004C80.9361 31.1494 81.0372 30.9095 81.215 30.732C81.3927 30.5545 81.633 30.4536 81.8844 30.4508H83.5674C83.8183 30.4536 84.058 30.5547 84.2349 30.7323C84.4118 30.91 84.5117 31.1499 84.5131 31.4004V40.6135H84.5024Z" fill="#2970FF"/>
<path d="M18.3793 19.1464L18.9457 19.2478L18.7426 23.5156L18.1816 23.649C14.5236 23.649 12.4292 21.9543 11.8984 18.565C11.1077 20.5851 9.45497 21.5969 6.94027 21.6004C6.12091 21.6357 5.30276 21.5071 4.53388 21.2221C3.76501 20.9372 3.06091 20.5018 2.46295 19.9413C1.88903 19.3678 1.44107 18.6812 1.14762 17.9253C0.854174 17.1694 0.721679 16.3607 0.758581 15.5508C0.758581 11.123 4.34008 8.20664 11.5031 6.80182V4.45453H14.9118V15.9136C14.9118 17.2117 15.1914 18.0742 15.7506 18.5009C16.5352 18.9912 17.4565 19.2175 18.3793 19.1464ZM7.37838 17.0659C9.36236 17.0659 10.739 16.6373 11.5084 15.7802V10.7816C6.35077 11.6956 3.77017 13.0862 3.76661 14.9533C3.76518 15.2863 3.86161 15.6124 4.04395 15.8912C4.22629 16.1699 4.48653 16.3892 4.79244 16.5217C5.59679 16.9118 6.48478 17.0987 7.37838 17.0659Z" fill="#2970FF"/>
<path d="M17.6204 23.4729L17.8181 19.3438L18.3791 19.1465H24.2563L24.7905 19.3118L24.5929 23.4729L24.0586 23.6383H18.1814L17.6204 23.4729Z" fill="#2970FF"/>
<path d="M23.5031 23.4729L23.7061 19.3438L24.2404 19.1465H30.1176L30.6839 19.3118L30.4809 23.4729L29.9466 23.6383H24.0695L23.5031 23.4729Z" fill="#2970FF"/>
<path d="M29.3908 23.4729L29.5885 19.3438L30.1227 19.1465H35.9999L36.5342 19.3118L36.3365 23.4729L35.8022 23.6383H29.9518L29.3908 23.4729Z" fill="#2970FF"/>
<path d="M35.2735 23.4729L35.4765 19.3438L36.0108 19.1465H41.8879L42.4543 19.3118L42.2512 23.4729L41.7169 23.6383H35.8398L35.2735 23.4729Z" fill="#2970FF"/>
<path d="M52.7338 19.1465L53.268 19.2478L53.0704 23.5156L52.5361 23.617C49.5619 23.6312 47.6883 22.5536 46.9154 20.3841C46.1407 22.566 44.4149 23.6543 41.7221 23.6543L41.1878 23.553L41.3855 19.2852L41.9465 19.1838C43.2715 19.1838 44.2172 18.9704 44.7943 18.5383C45.3713 18.1062 45.6545 17.2259 45.6545 15.8709V11.091H49.0525V15.7162C49.0525 17.1388 49.3179 18.0617 49.8486 18.4849C50.3793 18.9082 51.341 19.1287 52.7338 19.1465ZM43.8219 26.4604C43.9873 26.2896 44.1858 26.1542 44.4054 26.0624C44.6249 25.9707 44.8608 25.9246 45.0988 25.9269C45.3335 25.9256 45.5659 25.9723 45.7818 26.0641C45.9978 26.1558 46.1926 26.2907 46.3544 26.4604C46.527 26.6266 46.6636 26.8265 46.7555 27.0477C46.8474 27.2689 46.8928 27.5066 46.8887 27.7461C46.893 27.9813 46.8498 28.2149 46.7617 28.4331C46.6735 28.6512 46.5423 28.8494 46.3757 29.0157C46.2091 29.182 46.0106 29.3131 45.7922 29.4011C45.5737 29.4891 45.3397 29.5322 45.1042 29.5279C44.8636 29.5318 44.6248 29.4864 44.4024 29.3947C44.18 29.3029 43.9788 29.1667 43.8112 28.9944C43.641 28.8331 43.5057 28.6386 43.4138 28.4229C43.3219 28.2073 43.2753 27.9751 43.2769 27.7407C43.2746 27.5014 43.3218 27.2641 43.4156 27.0438C43.5094 26.8235 43.6477 26.6249 43.8219 26.4604ZM49.6242 25.9269C49.8589 25.9253 50.0914 25.9719 50.3074 26.0636C50.5234 26.1554 50.7182 26.2904 50.8798 26.4604C51.2152 26.7981 51.4034 27.2545 51.4034 27.7301C51.4034 28.2057 51.2152 28.662 50.8798 28.9997C50.7159 29.1726 50.5177 29.3094 50.2978 29.4013C50.0779 29.4932 49.8412 29.5381 49.6028 29.5332C49.3605 29.5386 49.1196 29.4939 48.8953 29.4022C48.671 29.3104 48.4681 29.1734 48.2992 28.9997C48.1275 28.8362 47.9914 28.639 47.8995 28.4205C47.8075 28.2021 47.7617 27.967 47.7649 27.7301C47.7627 27.4909 47.8089 27.2537 47.9007 27.0328C47.9925 26.8119 48.128 26.6118 48.2992 26.4444C48.47 26.2677 48.6764 26.1292 48.9049 26.0382C49.1333 25.9471 49.3785 25.9056 49.6242 25.9163V25.9269Z" fill="#2970FF"/>
<path d="M51.975 23.4729L52.1727 19.3438L52.707 19.1465H58.5841L59.1184 19.3118L58.9207 23.4729L58.3864 23.6383H52.536L51.975 23.4729Z" fill="#2970FF"/>
<path d="M57.8574 23.4729L58.0551 19.3438L58.6214 19.1465H64.4986L65.0329 19.3118L64.8352 23.4729L64.3009 23.6383H58.4184L57.8574 23.4729Z" fill="#2970FF"/>
<path d="M75.318 19.1465L75.879 19.2478L75.6813 23.5156L75.1203 23.617C72.1461 23.617 70.2725 22.5269 69.4996 20.3468C68.7231 22.5305 66.992 23.6205 64.3063 23.617L63.772 23.5156L63.9697 19.2478L64.504 19.1465C65.829 19.1465 66.7765 18.9313 67.3464 18.5009C67.9234 18.0742 68.2066 17.1886 68.2066 15.8336V11.091H71.6474V15.7162C71.6474 17.1388 71.911 18.0617 72.4382 18.4849C72.9653 18.9082 73.9253 19.1287 75.318 19.1465ZM69.927 25.8843C70.1946 25.878 70.4606 25.9274 70.708 26.0293C70.9555 26.1313 71.1789 26.2835 71.3642 26.4764C71.7337 26.8567 71.9404 27.3656 71.9404 27.8955C71.9404 28.4253 71.7337 28.9342 71.3642 29.3145C71.1794 29.5083 70.9562 29.6616 70.7087 29.7645C70.4612 29.8673 70.195 29.9176 69.927 29.912C69.6534 29.9261 69.3798 29.8844 69.1229 29.7895C68.8659 29.6947 68.6309 29.5486 68.4323 29.3602C68.2337 29.1718 68.0755 28.9451 67.9674 28.6937C67.8593 28.4424 67.8036 28.1717 67.8036 27.8981C67.8036 27.6246 67.8593 27.3539 67.9674 27.1025C68.0755 26.8512 68.2337 26.6244 68.4323 26.436C68.6309 26.2476 68.8659 26.1016 69.1229 26.0067C69.3798 25.9118 69.6534 25.8702 69.927 25.8843Z" fill="#2970FF"/>
<path d="M74.554 23.4729L74.757 19.3438L75.2913 19.1465H81.1684L81.7294 19.3118L81.5317 23.4729L80.9974 23.6383H75.1203L74.554 23.4729Z" fill="#2970FF"/>
<path d="M80.4419 23.4729L80.6396 19.3438L81.1738 19.1465H87.051L87.612 19.3118L87.4143 23.4729L86.88 23.6383H81.0029L80.4419 23.4729Z" fill="#2970FF"/>
<path d="M90.5612 0H94.1302V15.9136C94.1302 18.5347 93.4695 20.4766 92.148 21.7391C91.4399 22.3854 90.611 22.8858 89.7088 23.2117C88.8067 23.5376 87.849 23.6826 86.8906 23.6383L86.3243 23.5369L86.5273 19.2691L87.0883 19.1678C88.0115 19.241 88.9349 19.0287 89.733 18.5596C90.2673 18.1488 90.5612 17.354 90.5612 16.1643V0Z" fill="#2970FF"/>
<path d="M141.842 15.6522L142.013 15.8229C143.803 18.0795 145.892 20.6775 147.938 23.1849C148.878 24.4172 149.813 25.6122 150.754 26.8018C153.65 30.5361 156.417 34.1211 159.447 37.6954C159.54 37.8168 159.664 37.912 159.805 37.9718C159.946 38.0316 160.101 38.054 160.253 38.0368C160.563 38.0173 160.854 37.8799 161.065 37.6527C163.104 35.0855 164.97 32.3855 166.649 29.5706C167.883 27.3993 169.288 24.0384 168.786 20.3788C168.671 19.3269 168.343 18.3093 167.822 17.3877C167.301 16.4661 166.599 15.6597 165.757 15.0173C163.587 13.4809 161.114 13.7797 159.409 14.3345C157.106 15.06 154.718 16.5911 152.335 18.885C152.101 19.1021 151.826 19.2704 151.526 19.3803C151.226 19.4902 150.907 19.5395 150.588 19.5252C150.267 19.5091 149.953 19.4252 149.666 19.279C149.38 19.1328 149.128 18.9276 148.927 18.677L148.285 17.9088C147.913 17.4639 147.727 16.8922 147.766 16.3134C147.806 15.7347 148.069 15.1937 148.499 14.804C155.482 8.07683 162 7.31396 166.563 9.18112C161.089 3.59894 153.627 0.40363 145.804 0.291708C137.981 0.179785 130.43 3.16033 124.798 8.58363C129.398 7.58069 135.452 9.05842 141.842 15.6522Z" fill="#2970FF"/>
<path d="M174.278 23.3556C174 26.5243 173.018 29.5913 171.404 32.334C169.054 36.2111 166.42 39.9093 163.523 43.3982C162.989 44.0384 162.497 44.6306 161.984 45.2707C161.76 45.5376 161.479 45.7523 161.163 45.8997C160.846 46.0472 160.501 46.1238 160.152 46.1243C159.804 46.1235 159.462 46.0421 159.151 45.8866C158.841 45.731 158.57 45.5056 158.362 45.2281L158.025 44.7586C157.555 44.1238 157.042 43.4836 156.615 42.9715C152.821 38.5063 140.976 23.6116 138.674 20.4641C135.82 17.2633 132.919 15.188 130.066 14.2918C128.362 13.7583 125.888 13.4382 123.714 14.9747C122.876 15.6149 122.176 16.4174 121.657 17.3341C121.137 18.2508 120.808 19.2628 120.689 20.3094C120.155 23.9264 121.539 27.2873 122.827 29.5012C125.295 33.769 128.538 37.8821 131.733 41.7125C133.053 43.3129 134.405 44.9133 135.954 46.6471L146.779 59.1624C146.85 59.2354 146.908 59.3203 146.95 59.4132C154.525 59.0023 161.655 55.7073 166.87 50.2065C172.086 44.7057 174.992 37.4177 174.989 29.8426C174.987 27.661 174.749 25.4859 174.278 23.3556Z" fill="#2970FF"/>
<path d="M118.018 32.3339C117.077 30.7017 116.344 28.9578 115.838 27.1432C115.758 28.0395 115.715 28.9304 115.715 29.8106C115.715 36.6521 118.088 43.2825 122.431 48.5737C126.775 53.8648 132.82 57.4898 139.539 58.8317C128.8 47.442 121.555 38.5223 118.018 32.3339Z" fill="#2970FF"/>
</svg>
