<svg width="24" height="25" viewBox="0 0 24 25" fill="none" xmlns="http://www.w3.org/2000/svg">
<path d="M21.0038 21.5041V4.78417C21.0023 4.36308 20.7949 3.96934 20.4485 3.72999C20.102 3.49065 19.6604 3.43599 19.266 3.58367L12.8344 5.99168C12.3316 6.18013 11.9989 6.66123 12 7.19818V21.5041" stroke="#323232" stroke-width="1.5" stroke-linecap="round" stroke-linejoin="round"/>
<path fill-rule="evenodd" clip-rule="evenodd" d="M6.37278 5.74707H8.62372C9.2453 5.74707 9.74919 6.25096 9.74919 6.87254V9.12348H5.24731V6.87254C5.24731 6.25096 5.7512 5.74707 6.37278 5.74707V5.74707Z" stroke="#323232" stroke-width="1.5" stroke-linecap="round" stroke-linejoin="round"/>
<path d="M7.49826 3.49609V5.74703" stroke="#323232" stroke-width="1.5" stroke-linecap="round" stroke-linejoin="round"/>
<path d="M2.99634 21.5042V10.2495C2.99634 9.62791 3.50023 9.12402 4.12181 9.12402H10.8746C11.4962 9.12402 12.0001 9.62791 12.0001 10.2495V21.5042" stroke="#323232" stroke-width="1.5" stroke-linecap="round" stroke-linejoin="round"/>
<path d="M5.81055 15.8762H9.18695" stroke="#323232" stroke-width="1.5" stroke-linecap="round" stroke-linejoin="round"/>
<path d="M5.81055 15.8762H9.18695" stroke="#323232" stroke-width="1.5" stroke-linecap="round" stroke-linejoin="round"/>
<path d="M5.81055 12.5002H9.18695" stroke="#323232" stroke-width="1.5" stroke-linecap="round" stroke-linejoin="round"/>
<path d="M7.49826 19.8164V21.5041" stroke="#323232" stroke-width="1.5" stroke-linecap="round" stroke-linejoin="round"/>
<path d="M22.0042 21.5041H1.99585" stroke="#323232" stroke-width="1.5" stroke-linecap="round" stroke-linejoin="round"/>
<path d="M15.0014 9.55566V17.502" stroke="#323232" stroke-width="1.5" stroke-linecap="round" stroke-linejoin="round"/>
<path d="M18.0026 9.55566V17.502" stroke="#323232" stroke-width="1.5" stroke-linecap="round" stroke-linejoin="round"/>
</svg>
