<svg width="24" height="25" viewBox="0 0 24 25" fill="none" xmlns="http://www.w3.org/2000/svg">
<path fill-rule="evenodd" clip-rule="evenodd" d="M17.2261 15.6575L17 15.8871L16.7738 15.6574C16.3624 15.237 15.7989 15 15.2107 15C14.6224 15 14.0589 15.237 13.6475 15.6574V15.6574C12.7842 16.5395 12.7842 17.9499 13.6475 18.8319L15.7626 20.9796C16.0883 21.3124 16.5343 21.5 17 21.5C17.4657 21.5 17.9117 21.3124 18.2374 20.9796L20.3525 18.832C21.2158 17.9499 21.2158 16.5396 20.3525 15.6575V15.6575C19.941 15.237 19.3776 15 18.7893 15C18.201 15 17.6375 15.237 17.2261 15.6575Z" stroke="#323232" stroke-width="1.5" stroke-linecap="round" stroke-linejoin="round"/>
<path d="M10 15.5H7C4.79086 15.5 3 17.2909 3 19.5V20.5" stroke="#323232" stroke-width="1.5" stroke-linecap="round" stroke-linejoin="round"/>
<circle cx="11" cy="7.5" r="4" stroke="#323232" stroke-width="1.5" stroke-linecap="round" stroke-linejoin="round"/>
</svg>
