<svg width="132" height="33" viewBox="0 0 132 33" fill="none" xmlns="http://www.w3.org/2000/svg">
<path fill-rule="evenodd" clip-rule="evenodd" d="M25.6102 0L25.6062 0.014389L25.6012 0C25.4252 0.538209 25.2662 1.0956 25.1262 1.67217C24.4612 1.43123 23.7542 1.30057 23.0212 1.30057C20.2212 1.30057 17.8012 3.19689 16.6582 5.94428C17.8802 4.57058 19.5262 3.70513 21.3442 3.63921C19.1882 4.87745 17.7292 7.23885 17.7292 9.95029C17.7292 10.4034 17.7692 10.8469 17.8482 11.2772C18.3822 8.78396 20.1742 6.77257 22.5092 5.97424C21.1602 7.24605 20.3182 9.03929 20.3182 11.0255C20.3182 12.7013 20.9172 14.2404 21.9152 15.4439C21.7332 14.8253 21.6362 14.1721 21.6362 13.4972C21.6362 11.2425 22.7192 9.23949 24.3972 7.96286C24.3972 10.8637 24.8362 13.5823 25.6012 15.9197L25.6062 15.9042L25.6102 15.9197C26.3762 13.5823 26.8152 10.8637 26.8152 7.96286C28.4942 9.23949 29.5762 11.2425 29.5762 13.4972C29.5762 14.1721 29.4792 14.8253 29.2972 15.4439C30.2942 14.2404 30.8942 12.7013 30.8942 11.0255C30.8942 9.03929 30.0532 7.24605 28.7032 5.97424C31.0382 6.77257 32.8292 8.78396 33.3652 11.2772C33.4422 10.8469 33.4842 10.4034 33.4842 9.95029C33.4842 7.23885 32.0252 4.87745 29.8672 3.63921C31.6872 3.70513 33.3332 4.57058 34.5542 5.94428C33.4112 3.19689 30.9912 1.30057 28.1902 1.30057C27.4572 1.30057 26.7502 1.43123 26.0862 1.67217C25.9462 1.0956 25.7882 0.538209 25.6102 0Z" fill="#A1B0D5"/>
<path fill-rule="evenodd" clip-rule="evenodd" d="M33.9504 32.5565C33.2544 31.9883 31.0124 30.1651 28.2614 28.0075C30.1144 26.3257 31.9874 24.6667 33.9244 23.1025C34.5814 22.5726 35.2514 22.0608 35.9324 21.5777C37.2104 20.6715 38.5494 19.8133 40.0064 19.2307C41.2004 18.7548 42.2264 18.5487 43.0104 18.4695C44.3364 18.3353 45.6814 18.5439 46.8854 19.1324C50.4184 20.8573 50.6804 25.0515 50.6804 25.0515L51.0434 25.0971C51.1004 23.9391 50.8914 22.9059 50.5764 22.0332C49.8804 20.101 48.5794 18.5175 46.7804 17.5633C43.8134 15.9895 40.5174 16.7171 38.3614 17.5466C36.7814 18.1543 35.1494 19.0749 33.7214 19.9847C31.4564 21.4279 28.4074 23.6766 25.5264 25.8858C22.6454 23.6766 19.5964 21.4279 17.3334 19.9847C15.9034 19.0749 14.2714 18.1543 12.6914 17.5466C10.5364 16.7171 7.24037 15.9895 4.27237 17.5633C2.47337 18.5175 1.17337 20.101 0.477369 22.0332C0.161369 22.9059 -0.0476338 23.9391 0.00936624 25.0971L0.373365 25.0515C0.373365 25.0515 0.63537 20.8573 4.16837 19.1324C5.37137 18.5439 6.71737 18.3353 8.04237 18.4695C8.82637 18.5487 9.85337 18.7548 11.0464 19.2307C12.5034 19.8133 13.8424 20.6715 15.1204 21.5777C15.8024 22.0608 16.4724 22.5726 17.1294 23.1025C19.0664 24.6667 20.9384 26.3257 22.7914 28.0075C20.0414 30.1651 17.7984 31.9883 17.1034 32.5565H23.2714C24.0254 31.8792 24.7764 31.1936 25.5264 30.5079C26.2774 31.1936 27.0284 31.8792 27.7824 32.5565H33.9504Z" fill="#A1B0D5"/>
<path fill-rule="evenodd" clip-rule="evenodd" d="M26.5421 20.5746C24.2751 18.8916 20.6341 17.1751 17.3331 19.9848L16.9531 19.7463C16.9531 19.7463 19.9411 16.1454 24.4151 16.6573C26.3161 16.8742 27.7941 17.7541 29.3131 18.8904C29.8001 19.256 30.3531 19.6971 30.9671 20.2306C33.7621 22.6567 36.0781 25.4376 38.9691 27.7907C40.0161 28.6441 41.0701 29.4365 41.7611 29.7877C41.7611 29.7877 45.7821 32.0987 48.5071 29.9711C48.5071 29.9711 49.5841 29.144 49.8111 28.7136L50.0521 28.8347C49.7781 29.2746 48.2871 31.5162 45.7521 32.4044C43.6671 33.1356 41.3081 32.7364 39.3561 31.8087C38.3121 31.3136 37.1221 30.5668 35.8551 29.4448L33.1101 26.7874C31.0031 24.7448 28.9051 22.3271 26.5421 20.5746Z" fill="#A1B0D5"/>
<path fill-rule="evenodd" clip-rule="evenodd" d="M2.75781 24.0339L5.19981 21.5742L7.33482 23.7247L9.46981 21.5742L11.9118 24.0339L9.46981 26.4936L7.33482 24.342L5.19981 26.4936L2.75781 24.0339Z" fill="#A1B0D5"/>
<path d="M79.1072 2.84863C79.1072 2.84863 84.8392 7.8365 90.5992 7.80832C90.5992 12.7117 90.3702 17.4178 88.2202 21.1094C86.0712 24.801 82.0012 27.4781 79.1072 28.2107C76.1842 27.5626 71.9422 24.9419 69.7642 21.1657C67.7852 17.7202 67.6282 13.3419 67.6162 8.80975L67.6152 7.8365C73.3752 7.8365 79.1072 2.84863 79.1072 2.84863ZM79.1072 9.20015C77.1312 9.20015 75.5292 10.8019 75.5292 12.7778V14.4287H75.2542C74.6872 14.4288 74.2192 14.8582 74.1602 15.4098L74.1542 15.5297L74.1552 19.3842C74.1552 20.1942 74.4532 20.9758 74.9922 21.5805C76.3352 23.0878 77.7072 23.8415 79.1072 23.8415C80.5072 23.8415 81.8792 23.0882 83.2232 21.5816C83.7142 21.0314 84.0062 20.3343 84.0542 19.6027L84.0622 19.3822L84.0612 15.5297C84.0602 14.9624 83.6312 14.4954 83.0802 14.4354L82.9602 14.4289L82.6842 14.4287L82.6852 12.7778C82.6852 10.8019 81.0832 9.20015 79.1072 9.20015ZM79.1072 16.6305C79.7152 16.6305 80.2082 17.1233 80.2082 17.7313C80.2082 18.1386 79.9872 18.4942 79.6582 18.6846L79.6572 19.9329H78.5572L78.5562 18.6846C78.2272 18.4942 78.0062 18.1386 78.0062 17.7313C78.0062 17.1233 78.4992 16.6305 79.1072 16.6305ZM79.1072 10.8514C80.1712 10.8514 81.0332 11.7138 81.0332 12.7778V14.4287H77.1802L77.1812 12.7778C77.1812 11.7138 78.0432 10.8514 79.1072 10.8514Z" fill="#A1B0D5"/>
<path d="M101.237 19.9799C101.488 20.1056 101.753 20.2471 102.032 20.4043C102.31 20.5615 102.566 20.7479 102.8 20.9635C103.033 21.179 103.224 21.4216 103.372 21.691C103.52 21.9605 103.595 22.2704 103.595 22.6207C103.595 22.7195 103.588 22.8408 103.574 22.9845C103.561 23.1282 103.536 23.2832 103.5 23.4493C103.464 23.6155 103.413 23.7862 103.345 23.9613C103.278 24.1365 103.19 24.3049 103.083 24.4666C102.589 25.2032 101.803 25.5714 100.725 25.5714C100.437 25.5714 100.145 25.5355 99.8494 25.4636C99.5524 25.3918 99.2724 25.2818 99.0074 25.1335C98.7424 24.9853 98.5064 24.7989 98.2994 24.5744C98.0934 24.3498 97.9364 24.0804 97.8284 23.766C97.8104 23.7211 97.8234 23.6851 97.8684 23.6582L99.1084 22.5938C99.1804 22.5399 99.2384 22.5489 99.2834 22.6207C99.3014 22.6566 99.3214 22.6993 99.3444 22.7487C99.3664 22.7981 99.3954 22.8587 99.4314 22.9306C99.5304 23.1372 99.6924 23.3281 99.9164 23.5032C100.141 23.6784 100.388 23.766 100.657 23.766C100.765 23.766 100.875 23.7503 100.987 23.7188C101.1 23.6874 101.205 23.638 101.304 23.5706C101.403 23.5032 101.484 23.4134 101.547 23.3011C101.609 23.1889 101.641 23.0519 101.641 22.8902C101.641 22.7375 101.594 22.5983 101.499 22.4725C101.405 22.3468 101.288 22.2367 101.149 22.1424C101.01 22.0481 100.862 21.9672 100.704 21.8999C100.547 21.8325 100.401 21.7719 100.267 21.718C99.9614 21.5922 99.6584 21.4508 99.3574 21.2936C99.0564 21.1364 98.7754 20.941 98.5154 20.7075C97.9674 20.1955 97.6934 19.6116 97.6934 18.9559C97.6934 18.5337 97.7814 18.1654 97.9564 17.8511C98.1314 17.5367 98.3624 17.2739 98.6504 17.0629C98.9374 16.8518 99.2614 16.6923 99.6204 16.5845C99.9794 16.4768 100.343 16.4229 100.711 16.4229C101.87 16.4229 102.732 17.0247 103.298 18.2283C103.325 18.2912 103.312 18.3406 103.258 18.3765L102.059 19.2119C102.014 19.2388 101.969 19.2254 101.924 19.1715C101.69 18.8391 101.466 18.5944 101.25 18.4372C101.035 18.28 100.792 18.2014 100.523 18.2014C100.451 18.2014 100.361 18.2104 100.253 18.2283C100.145 18.2463 100.042 18.2777 99.9434 18.3226C99.8444 18.3675 99.7594 18.4282 99.6874 18.5045C99.6154 18.5809 99.5794 18.6819 99.5794 18.8077C99.5794 18.9604 99.6404 19.0951 99.7614 19.2119C99.8834 19.3287 100.031 19.4342 100.206 19.5285C100.381 19.6228 100.563 19.7059 100.752 19.7778C100.94 19.8496 101.102 19.917 101.237 19.9799ZM109.366 19.9799C109.617 20.1056 109.882 20.2471 110.161 20.4043C110.439 20.5615 110.695 20.7479 110.929 20.9635C111.162 21.179 111.353 21.4216 111.501 21.691C111.65 21.9605 111.724 22.2704 111.724 22.6207C111.724 22.7195 111.717 22.8408 111.703 22.9845C111.69 23.1282 111.665 23.2832 111.629 23.4493C111.593 23.6155 111.542 23.7862 111.474 23.9613C111.407 24.1365 111.319 24.3049 111.212 24.4666C110.718 25.2032 109.932 25.5714 108.854 25.5714C108.566 25.5714 108.274 25.5355 107.978 25.4636C107.682 25.3918 107.401 25.2818 107.136 25.1335C106.871 24.9853 106.635 24.7989 106.428 24.5744C106.222 24.3498 106.065 24.0804 105.957 23.766C105.939 23.7211 105.952 23.6851 105.997 23.6582L107.237 22.5938C107.309 22.5399 107.367 22.5489 107.412 22.6207C107.43 22.6566 107.45 22.6993 107.473 22.7487C107.495 22.7981 107.524 22.8587 107.56 22.9306C107.659 23.1372 107.821 23.3281 108.045 23.5032C108.27 23.6784 108.517 23.766 108.786 23.766C108.894 23.766 109.004 23.7503 109.116 23.7188C109.229 23.6874 109.334 23.638 109.433 23.5706C109.532 23.5032 109.613 23.4134 109.676 23.3011C109.738 23.1889 109.77 23.0519 109.77 22.8902C109.77 22.7375 109.723 22.5983 109.628 22.4725C109.534 22.3468 109.417 22.2367 109.278 22.1424C109.139 22.0481 108.991 21.9672 108.834 21.8999C108.676 21.8325 108.53 21.7719 108.396 21.718C108.09 21.5922 107.787 21.4508 107.486 21.2936C107.185 21.1364 106.905 20.941 106.644 20.7075C106.096 20.1955 105.822 19.6116 105.822 18.9559C105.822 18.5337 105.91 18.1654 106.085 17.8511C106.26 17.5367 106.491 17.2739 106.779 17.0629C107.066 16.8518 107.39 16.6923 107.749 16.5845C108.108 16.4768 108.472 16.4229 108.84 16.4229C109.999 16.4229 110.861 17.0247 111.427 18.2283C111.454 18.2912 111.441 18.3406 111.387 18.3765L110.188 19.2119C110.143 19.2388 110.098 19.2254 110.053 19.1715C109.819 18.8391 109.595 18.5944 109.379 18.4372C109.164 18.28 108.921 18.2014 108.652 18.2014C108.58 18.2014 108.49 18.2104 108.382 18.2283C108.274 18.2463 108.171 18.2777 108.072 18.3226C107.973 18.3675 107.888 18.4282 107.816 18.5045C107.744 18.5809 107.708 18.6819 107.708 18.8077C107.708 18.9604 107.769 19.0951 107.89 19.2119C108.012 19.3287 108.16 19.4342 108.335 19.5285C108.51 19.6228 108.692 19.7059 108.881 19.7778C109.069 19.8496 109.231 19.917 109.366 19.9799ZM116.107 16.5441C116.188 16.5441 116.228 16.5845 116.228 16.6654V23.739H119.139C119.219 23.739 119.26 23.7794 119.26 23.8603V25.3154C119.26 25.3963 119.219 25.4367 119.139 25.4367H114.571C114.499 25.4367 114.463 25.3963 114.463 25.3154V16.6654C114.463 16.5845 114.499 16.5441 114.571 16.5441H116.107Z" fill="#A1B0D5"/>
<path d="M101.472 13.2884C101.287 13.5769 101.045 13.7743 100.746 13.8808C100.447 13.9873 100.143 14.0405 99.8339 14.0405C99.6279 14.0405 99.4219 14.0165 99.2159 13.9684C99.0099 13.9203 98.8159 13.8465 98.6339 13.7469C98.4519 13.6473 98.2899 13.5253 98.1489 13.3811C98.0079 13.2368 97.8999 13.0686 97.8249 12.8762L98.6079 12.2065L98.6589 12.3095C98.7759 12.5087 98.9319 12.6822 99.1279 12.8299C99.3239 12.9775 99.5419 13.0514 99.7819 13.0514C100.043 13.0514 100.265 12.9707 100.447 12.8093C100.629 12.6478 100.72 12.4401 100.72 12.1859C100.72 12.0417 100.689 11.9163 100.627 11.8098C100.565 11.7034 100.485 11.6089 100.385 11.5265C100.286 11.4441 100.17 11.3719 100.04 11.3101C99.9089 11.2483 99.7719 11.1899 99.6279 11.135C99.4149 11.0525 99.1869 10.9495 98.9429 10.8259C98.6989 10.7022 98.4769 10.5511 98.2779 10.3725C97.8999 10.0222 97.7109 9.62377 97.7109 9.17727C97.7109 8.8888 97.7749 8.63637 97.9019 8.42C98.0289 8.20363 98.1939 8.02332 98.3969 7.87908C98.5989 7.73483 98.8259 7.62493 99.0769 7.54937C99.3269 7.47381 99.5759 7.43604 99.8239 7.43604C100.236 7.43604 100.588 7.54078 100.88 7.75029C101.172 7.95979 101.407 8.25 101.585 8.62092L100.844 9.13608C100.679 8.91629 100.505 8.73941 100.323 8.60546C100.141 8.47152 99.9269 8.40455 99.6789 8.40455C99.5759 8.40455 99.4699 8.41829 99.3599 8.44576C99.2499 8.47324 99.1519 8.51445 99.0659 8.5694C98.9799 8.62435 98.9079 8.69304 98.8499 8.77547C98.7919 8.85789 98.7619 8.95406 98.7619 9.06397C98.7619 9.20817 98.8099 9.33528 98.9069 9.44518C99.0029 9.55508 99.1199 9.65128 99.2569 9.73368C99.3939 9.81608 99.5439 9.88997 99.7049 9.95517C99.8669 10.0205 100.009 10.084 100.133 10.1458C100.318 10.2283 100.51 10.3262 100.71 10.4395C100.909 10.5528 101.093 10.6851 101.261 10.8362C101.429 10.9873 101.567 11.1573 101.673 11.3462C101.78 11.5351 101.833 11.7463 101.833 11.9798C101.833 12.131 101.812 12.3284 101.771 12.5723C101.73 12.8161 101.63 13.0548 101.472 13.2884ZM104.738 10.218H106.562V11.135H104.738V13.0411H107.057V13.9375H103.759V7.52876H107.057V8.42515H104.738V10.218ZM111.281 8.42515H111.157C110.766 8.42515 110.474 8.55224 110.281 8.80639C110.206 8.91629 110.148 9.04337 110.106 9.18757C110.065 9.33187 110.045 9.50697 110.045 9.71307V11.7532C110.045 12.2134 110.165 12.5568 110.405 12.7835C110.611 12.9552 110.862 13.0411 111.157 13.0411H111.281C111.459 13.0411 111.626 13.0085 111.781 12.9432C111.935 12.8779 112.064 12.7801 112.167 12.6496C112.256 12.5328 112.32 12.3988 112.358 12.2477C112.395 12.0966 112.414 11.9318 112.414 11.7532V11.5368H113.383V12.0829C113.383 12.4469 113.333 12.7543 113.233 13.005C113.134 13.2557 112.991 13.4584 112.806 13.6129C112.62 13.7675 112.395 13.8774 112.131 13.9426C111.866 14.0079 111.566 14.0405 111.229 14.0405C110.522 14.0405 109.983 13.8911 109.612 13.5923C109.241 13.2935 109.055 12.7904 109.055 12.0829V9.37307C109.055 9.01587 109.105 8.71365 109.205 8.46637C109.304 8.21909 109.447 8.01817 109.632 7.86362C109.818 7.70907 110.045 7.59918 110.312 7.53393C110.58 7.46867 110.886 7.43604 111.229 7.43604C111.951 7.43604 112.49 7.58543 112.847 7.88423C113.204 8.18303 113.383 8.6793 113.383 9.37307V9.48637H112.404V9.42457C112.404 9.23907 112.373 9.08287 112.311 8.95578C112.249 8.8287 112.165 8.72567 112.059 8.64668C111.952 8.56768 111.832 8.51103 111.698 8.47668C111.564 8.44234 111.425 8.42515 111.281 8.42515ZM119.761 12.0829C119.761 12.4675 119.704 12.7869 119.591 13.0411C119.477 13.2952 119.323 13.4961 119.127 13.6438C118.931 13.7915 118.703 13.8945 118.442 13.9529C118.181 14.0113 117.903 14.0405 117.607 14.0405C117.271 14.0405 116.968 14.0079 116.7 13.9426C116.433 13.8774 116.206 13.7675 116.02 13.6129C115.835 13.4584 115.692 13.2575 115.593 13.0102C115.493 12.7629 115.443 12.4538 115.443 12.0829V7.52876H116.422V11.7532C116.422 12.2065 116.518 12.5345 116.711 12.7371C116.903 12.9398 117.181 13.0411 117.545 13.0411H117.669C118.418 13.0411 118.792 12.6118 118.792 11.7532V7.52876H119.761V12.0829ZM124.644 13.9375L123.82 12.1344H122.965V13.9375H121.996V7.52876H124.026C124.548 7.52876 124.953 7.68159 125.242 7.98726C125.53 8.29293 125.675 8.69304 125.675 9.18757V10.4859C125.675 10.7812 125.62 11.0646 125.51 11.3359C125.4 11.6072 125.218 11.8012 124.964 11.918L124.778 12.0107L125.675 13.9375H124.644ZM123.779 8.50758H122.965V11.1762H123.635C123.806 11.1762 123.952 11.1659 124.073 11.1453C124.193 11.1247 124.301 11.0766 124.397 11.001C124.534 10.898 124.62 10.7709 124.655 10.6198C124.689 10.4687 124.706 10.3176 124.706 10.1664V9.49667C124.706 8.83728 124.397 8.50758 123.779 8.50758ZM128.848 10.218H130.672V11.135H128.848V13.0411H131.166V13.9375H127.869V7.52876H131.166V8.42515H128.848V10.218Z" fill="#A1B0D5"/>
</svg>
