<svg width="90" height="66" viewBox="0 0 90 66" fill="none" xmlns="http://www.w3.org/2000/svg">
<rect opacity="0.1" width="66" height="66" rx="33" fill="#0A1326"/>
<rect opacity="0.2" x="11.6472" width="66" height="66" rx="33" fill="#0A1326"/>
<rect x="23.2942" width="66" height="66" rx="33" fill="white"/>
<mask id="mask0_5787_12784" style="mask-type:alpha" maskUnits="userSpaceOnUse" x="23" y="0" width="67" height="66">
<rect x="23.2942" width="66" height="66" rx="33" fill="white"/>
</mask>
<g mask="url(#mask0_5787_12784)">
<g opacity="0.2" filter="url(#filter0_f_5787_12784)">
<rect x="56.9412" y="-7.76465" width="42.7059" height="73.7647" fill="#E8406B"/>
</g>
<g opacity="0.2" filter="url(#filter1_f_5787_12784)">
<rect x="14.2354" y="-7.76465" width="42.7059" height="73.7647" fill="#DFCFDF"/>
</g>
<g opacity="0.2" filter="url(#filter2_f_5787_12784)">
<rect x="46.5884" y="-7.76465" width="22" height="40.1176" fill="#FF9D9D"/>
</g>
<path fill-rule="evenodd" clip-rule="evenodd" d="M61.9049 36.6181L61.6458 36.8812L61.3867 36.6181C60.9153 36.1363 60.2696 35.8647 59.5956 35.8647C58.9215 35.8647 58.2759 36.1363 57.8044 36.6181V36.6181C56.8152 37.6288 56.8152 39.2448 57.8044 40.2555L60.228 42.7163C60.6011 43.0977 61.1122 43.3127 61.6458 43.3127C62.1794 43.3127 62.6905 43.0977 63.0637 42.7163L65.4872 40.2556C66.4765 39.2449 66.4765 37.6288 65.4872 36.6181V36.6181C65.0158 36.1363 64.3701 35.8648 63.6961 35.8648C63.022 35.8648 62.3763 36.1363 61.9049 36.6181Z" stroke="#323232" stroke-width="1.5" stroke-linecap="round" stroke-linejoin="round"/>
<path d="M53.6251 36.4375H50.1876C47.6563 36.4375 45.6042 38.4895 45.6042 41.0208V42.1667" stroke="#323232" stroke-width="1.5" stroke-linecap="round" stroke-linejoin="round"/>
<circle cx="54.7708" cy="27.2708" r="4.58333" stroke="#323232" stroke-width="1.5" stroke-linecap="round" stroke-linejoin="round"/>
</g>
<defs>
<filter id="filter0_f_5787_12784" x="38.9412" y="-25.7646" width="78.7058" height="109.765" filterUnits="userSpaceOnUse" color-interpolation-filters="sRGB">
<feFlood flood-opacity="0" result="BackgroundImageFix"/>
<feBlend mode="normal" in="SourceGraphic" in2="BackgroundImageFix" result="shape"/>
<feGaussianBlur stdDeviation="9" result="effect1_foregroundBlur_5787_12784"/>
</filter>
<filter id="filter1_f_5787_12784" x="-3.76465" y="-25.7646" width="78.7058" height="109.765" filterUnits="userSpaceOnUse" color-interpolation-filters="sRGB">
<feFlood flood-opacity="0" result="BackgroundImageFix"/>
<feBlend mode="normal" in="SourceGraphic" in2="BackgroundImageFix" result="shape"/>
<feGaussianBlur stdDeviation="9" result="effect1_foregroundBlur_5787_12784"/>
</filter>
<filter id="filter2_f_5787_12784" x="28.5884" y="-25.7646" width="58" height="76.1177" filterUnits="userSpaceOnUse" color-interpolation-filters="sRGB">
<feFlood flood-opacity="0" result="BackgroundImageFix"/>
<feBlend mode="normal" in="SourceGraphic" in2="BackgroundImageFix" result="shape"/>
<feGaussianBlur stdDeviation="9" result="effect1_foregroundBlur_5787_12784"/>
</filter>
</defs>
</svg>
