<svg width="7" height="7" viewBox="0 0 7 7" fill="none" xmlns="http://www.w3.org/2000/svg">
<path d="M0.0420218 3.27802C0.0686839 3.20647 0.108663 3.14111 0.159663 3.08568L2.96064 0.171412C3.01287 0.117068 3.07488 0.0739597 3.14312 0.0445488C3.21137 0.0151378 3.28451 0 3.35838 0C3.50756 0 3.65063 0.0616589 3.75612 0.171412C3.80835 0.225757 3.84978 0.290273 3.87805 0.361277C3.90632 0.432281 3.92087 0.508383 3.92087 0.585238C3.92087 0.740453 3.86161 0.88931 3.75612 0.999063L1.90747 2.91665H6.4398C6.58838 2.91665 6.73087 2.97806 6.83592 3.08736C6.94098 3.19667 7 3.34492 7 3.4995C7 3.65409 6.94098 3.80234 6.83592 3.91164C6.73087 4.02095 6.58838 4.08236 6.4398 4.08236H1.90747L3.75612 5.99994C3.80863 6.05413 3.8503 6.11859 3.87874 6.18962C3.90718 6.26064 3.92182 6.33682 3.92182 6.41377C3.92182 6.49071 3.90718 6.56689 3.87874 6.63792C3.8503 6.70895 3.80863 6.77341 3.75612 6.82759C3.70404 6.88222 3.64208 6.92558 3.57382 6.95517C3.50555 6.98477 3.43233 7 3.35838 7C3.28443 7 3.21121 6.98477 3.14294 6.95517C3.07468 6.92558 3.01272 6.88222 2.96064 6.82759L0.159663 3.91333C0.108663 3.8579 0.0686839 3.79253 0.0420218 3.72099C-0.0140079 3.57908 -0.0140079 3.41992 0.0420218 3.27802Z" fill="#C2CFF1"/>
</svg>
