<svg width="70" height="70" viewBox="0 0 70 70" fill="none" xmlns="http://www.w3.org/2000/svg">
<rect x="8.73914" y="42.4128" width="52.5219" height="8.51706" rx="1" stroke="#323232" stroke-width="2.5" stroke-linecap="round" stroke-linejoin="round"/>
<path d="M11.6571 51.0483V61.2609" stroke="#323232" stroke-width="2.5" stroke-linecap="round" stroke-linejoin="round"/>
<path fill-rule="evenodd" clip-rule="evenodd" d="M31.7204 32.0821H9.10099C7.28966 32.0821 5.82129 30.6137 5.82129 28.8024V12.0187C5.82129 10.2074 7.28966 8.73901 9.10099 8.73901H31.7204C33.5317 8.73901 35.0001 10.2074 35.0001 12.0187V12.0187V28.8024C35.0001 30.6137 33.5317 32.0821 31.7204 32.0821Z" stroke="#323232" stroke-width="2.5" stroke-linecap="round" stroke-linejoin="round"/>
<path d="M26.5093 42.4129L24.7875 32.082" stroke="#323232" stroke-width="2.5" stroke-linecap="round" stroke-linejoin="round"/>
<path d="M14.312 42.4129L16.0338 32.082" stroke="#323232" stroke-width="2.5" stroke-linecap="round" stroke-linejoin="round"/>
<path d="M58.3431 61.2609V51.0483" stroke="#323232" stroke-width="2.5" stroke-linecap="round" stroke-linejoin="round"/>
<path d="M45.2126 28.8899H53.692C57.0625 28.8995 59.7924 31.6294 59.8021 34.9999" stroke="#5766E4" stroke-width="2.5" stroke-linecap="round" stroke-linejoin="round"/>
<path fill-rule="evenodd" clip-rule="evenodd" d="M49.5778 21.5951C46.357 21.5887 43.7504 18.9742 43.7537 15.7535C43.7569 12.5328 46.3687 9.92358 49.5894 9.92358C52.8102 9.92358 55.422 12.5328 55.4252 15.7535C55.4284 18.9742 52.8218 21.5887 49.6011 21.5951H49.5778Z" stroke="#5766E4" stroke-width="2.5" stroke-linecap="round" stroke-linejoin="round"/>
</svg>
