<svg width="70" height="70" viewBox="0 0 70 70" fill="none" xmlns="http://www.w3.org/2000/svg">
<ellipse cx="35" cy="13.1249" rx="7.29167" ry="7.29167" stroke="#5766E4" stroke-width="2.5" stroke-linecap="round" stroke-linejoin="round"/>
<path d="M35 37.9166V27.7083" stroke="#323232" stroke-width="2.5" stroke-linecap="round" stroke-linejoin="round"/>
<path d="M61.25 37.9165V61.2498" stroke="#323232" stroke-width="2.5" stroke-linecap="round" stroke-linejoin="round"/>
<path d="M8.74996 61.2498V37.9165" stroke="#323232" stroke-width="2.5" stroke-linecap="round" stroke-linejoin="round"/>
<path d="M49.5833 37.9166V36.4583C49.5833 31.6258 45.6658 27.7083 40.8333 27.7083H29.1666C24.3341 27.7083 20.4166 31.6258 20.4166 36.4583V37.9166" stroke="#323232" stroke-width="2.5" stroke-linecap="round" stroke-linejoin="round"/>
<path fill-rule="evenodd" clip-rule="evenodd" d="M34.1419 61.1649V61.1649C30.4011 60.4167 27.7083 57.1321 27.7083 53.3171V51.0415C27.7083 48.6253 29.6671 46.6665 32.0833 46.6665H37.9166C40.3329 46.6665 42.2916 48.6253 42.2916 51.0415V53.3171C42.2917 57.132 39.599 60.4166 35.8582 61.1648H35.858C35.2916 61.2781 34.7084 61.2781 34.1419 61.1649V61.1649Z" stroke="#323232" stroke-width="2.5" stroke-linecap="round" stroke-linejoin="round"/>
<path d="M64.1666 37.9166H5.83331" stroke="#323232" stroke-width="2.5" stroke-linecap="round" stroke-linejoin="round"/>
</svg>
