<svg width="20" height="19" viewBox="0 0 20 19" fill="none" xmlns="http://www.w3.org/2000/svg">
<path fill-rule="evenodd" clip-rule="evenodd" d="M9.99999 0.125C7.87901 0.125 7.67848 3.81929 6.41574 5.12456C5.15301 6.42982 1.22729 4.93741 0.681861 7.25419C0.137578 9.57216 3.66912 10.3586 4.10454 12.3473C4.54226 14.336 2.38461 17.1301 4.2283 18.5207C6.07198 19.91 8.05661 16.7653 9.99999 16.7653C11.9434 16.7653 13.928 19.91 15.7717 18.5207C17.6154 17.1301 15.4589 14.336 15.8954 12.3473C16.332 10.3586 19.8624 9.57216 19.3181 7.25419C18.7738 4.93741 14.847 6.42982 13.5854 5.12456C12.3226 3.81929 12.121 0.125 9.99999 0.125Z" fill="#FFC224"/>
</svg>
