<svg width="78" height="77" viewBox="0 0 78 77" fill="none" xmlns="http://www.w3.org/2000/svg">
<path fill-rule="evenodd" clip-rule="evenodd" d="M41.9106 45.3206C38.3652 45.3206 35.4912 48.1947 35.4912 51.74V54.9497C35.4912 58.495 38.3652 61.369 41.9106 61.369H44.6945V66.1803C44.6945 66.7997 45.051 67.3638 45.6105 67.6297C46.1699 67.8956 46.8324 67.8158 47.3127 67.4247L53.864 62.0897C54.4366 61.6235 55.1524 61.3689 55.8908 61.3689H64.3782C67.9235 61.3689 70.7976 58.4949 70.7976 54.9496V51.7399C70.7976 48.1946 67.9235 45.3206 64.3782 45.3206H41.9106Z" stroke="#A1B0D4" stroke-width="2.2" stroke-linecap="round" stroke-linejoin="round"/>
<path fill-rule="evenodd" clip-rule="evenodd" d="M13.0229 10.0143C9.47755 10.0143 6.60352 12.8883 6.60352 16.4336V19.6433C6.60352 23.1886 9.47755 26.0626 13.0229 26.0626H21.5103C22.2487 26.0626 22.9645 26.3172 23.5371 26.7835L30.0884 32.1184C30.5687 32.5095 31.2312 32.5893 31.7906 32.3234C32.3501 32.0575 32.7066 31.4934 32.7066 30.874V26.0626H35.4905C39.0359 26.0626 41.9099 23.1886 41.9099 19.6433V16.4336C41.9099 12.8883 39.0359 10.0143 35.4905 10.0143H13.0229Z" stroke="#A1B0D4" stroke-width="2.2" stroke-linecap="round" stroke-linejoin="round"/>
<path fill-rule="evenodd" clip-rule="evenodd" d="M6.60352 68.9919V67.6888C6.61409 63.9813 9.61702 60.9784 13.3246 60.9678H22.3502C26.0577 60.9784 29.0606 63.9813 29.0712 67.6888V68.9919C29.0712 69.8783 28.3527 70.5968 27.4664 70.5968H8.20835C7.32202 70.5968 6.60352 69.8783 6.60352 68.9919Z" stroke="#A1B0D4" stroke-width="2.2" stroke-linecap="round" stroke-linejoin="round"/>
<circle cx="17.8373" cy="46.5242" r="6.41934" stroke="#A1B0D4" stroke-width="2.2" stroke-linecap="round" stroke-linejoin="round"/>
<path fill-rule="evenodd" clip-rule="evenodd" d="M48.3301 33.6856V32.3824C48.3407 28.6749 51.3436 25.672 55.0511 25.6614H64.0767C67.7843 25.672 70.7872 28.6749 70.7978 32.3824V33.6856C70.7978 34.5719 70.0793 35.2904 69.1929 35.2904H49.9349C49.0486 35.2904 48.3301 34.5719 48.3301 33.6856Z" stroke="#A1B0D4" stroke-width="2.2" stroke-linecap="round" stroke-linejoin="round"/>
<ellipse cx="59.5639" cy="11.2178" rx="6.41934" ry="6.41934" stroke="#A1B0D4" stroke-width="2.2" stroke-linecap="round" stroke-linejoin="round"/>
</svg>
